<?xml version="1.0" encoding="UTF-8" standalone="no"?>
<svg width="160px" height="60px" viewBox="0 0 160 60" version="1.1" xmlns="http://www.w3.org/2000/svg" xmlns:xlink="http://www.w3.org/1999/xlink">
    <!-- Generator: Sketch 40.3 (33839) - http://www.bohemiancoding.com/sketch -->
    <title>Amazon</title>
    <desc>Created with Sketch.</desc>
    <defs></defs>
    <g id="Page-1" stroke="none" stroke-width="1" fill="none" fill-rule="evenodd">
        <g id="Amazon">
            <g id="Group">
                <rect id="Rectangle" fill="#000000" x="0" y="0" width="160" height="60"></rect>
                <g id="tradegecko-amazon" transform="translate(31.000000, 15.000000)">
                    <g id="integrations">
                        <path d="M28.84,3.53 C28.3057161,1.82036949 26.7211696,0.657287974 24.93,0.66 C23.115138,0.596672108 21.492064,1.78197044 21,3.53 L20.93,3.53 L20.93,1.53 C20.930234,1.38407964 20.8702958,1.24451829 20.7643146,1.14421472 C20.6583335,1.04391115 20.5156866,0.991740159 20.37,1 L17.56,1 C17.15,1 16.95,1.19 16.95,1.56 L16.95,17 C16.95,17.32 17.14,17.46 17.53,17.49 L20.53,17.49 C20.92,17.49 21.09,17.34 21.11,16.96 L21.11,8.78 C21.0403206,7.84901458 21.1043032,6.91284821 21.3,6 C21.4552727,5.11076534 22.2483697,4.47628767 23.15,4.52 C23.5783619,4.48402418 24.0034594,4.61977584 24.3316874,4.89736293 C24.6599153,5.17495001 24.8643588,5.57161011 24.9,6 C25.0000208,6.92306494 25.0334405,7.85213429 25,8.78 L25,16.92 C25,17.26 25.15,17.45 25.53,17.48 L28.53,17.48 C28.94,17.48 29.09,17.33 29.09,16.95 L29.09,8.78 C28.9975309,7.76868032 29.1062903,6.74906061 29.41,5.78 C29.5355037,5.38810319 29.7936333,5.05218109 30.14,4.83 C30.4463524,4.59583222 30.8246696,4.47561926 31.21,4.49 C31.6323733,4.41226081 32.0679212,4.51682801 32.4089642,4.77784972 C32.7500071,5.03887142 32.9647128,5.4319843 33,5.86 C33.1192043,6.81844315 33.1526702,7.78560964 33.1,8.75 L33.1,16.89 C33.0877845,17.0419381 33.1428488,17.1915849 33.250632,17.299368 C33.3584151,17.4071512 33.5080619,17.4622155 33.66,17.45 L36.66,17.45 C37.07,17.45 37.24,17.3 37.24,16.92 L37.24,4.65 C37.1940062,3.84038184 36.9427941,3.05577419 36.51,2.37 C35.716126,1.23584152 34.3922422,0.592812252 33.01,0.67 C31.162834,0.650231689 29.505583,1.80188069 28.88,3.54 L28.84,3.53 Z M57.16,1 C56.75,1 56.6,1.15 56.6,1.56 L56.6,3.75 C56.5802906,3.90905549 56.6350282,4.06831303 56.7483576,4.18164244 C56.861687,4.29497184 57.0209445,4.34970942 57.18,4.33 L62.35,4.33 L56.35,12.81 C56.0996273,13.2799043 55.9788263,13.8079772 56,14.34 L56,16.55 C55.976837,16.7277914 56.0638691,16.9018555 56.22,16.99 C56.3333831,17.1266311 56.531107,17.1567195 56.68,17.06 C58.3226578,16.1894476 60.1614488,15.7555756 62.02,15.8 C63.8049729,15.8133013 65.5619735,16.2448453 67.15,17.06 L67.66,16.99 C67.8161309,16.9018555 67.903163,16.7277914 67.88,16.55 L67.88,14.15 C67.8426694,13.7952176 67.6481412,13.4758977 67.35,13.28 C65.6026567,12.3887356 63.6475062,11.9845791 61.69,12.11 L66.82,4.8 C67.1852587,4.39328003 67.4430709,3.901718 67.57,3.37 L67.57,1.54 C67.57,1.13 67.38,0.98 67.01,0.98 L57.16,1 Z M96.81,2.49 C95.4142118,0.581316552 92.7493727,0.137176695 90.81,1.49 C90.0961577,2.12177718 89.5528025,2.92305417 89.23,3.82 L89.23,1.44 C89.1635081,1.19642845 88.951647,1.02054383 88.7,1 L85.81,1 C85.45,1 85.25,1.15 85.25,1.51 L85.25,16.91 C85.25,17.25 85.42,17.44 85.78,17.47 L88.78,17.47 C88.9344608,17.4972391 89.0929645,17.4533051 89.2113618,17.3504353 C89.3297591,17.2475655 89.3953996,17.0967512 89.39,16.94 L89.39,8.63 C89.3388328,7.63260265 89.5060607,6.636061 89.88,5.71 C90.1315884,4.96406577 90.8432792,4.47198243 91.63,4.5 C92.53,4.5 93.04,4.96 93.31,5.91 C93.4492812,6.80975856 93.5128374,7.7196155 93.5,8.63 L93.5,17 C93.5,17.32 93.69,17.44 94.01,17.46 L97.01,17.46 C97.35,17.46 97.54,17.34 97.59,17.02 L97.59,7.3 C97.59,4.94 97.32,3.3 96.81,2.49 L96.81,2.49 Z" id="Shape" fill="#FFFFFF"></path>
                        <path d="M14.19,19.35 C14.04,19.57 14.09,19.81 14.36,20.03 C17.753576,23.0970666 21.6686134,25.5321115 25.92,27.22 C30.3565049,28.9475898 35.0790528,29.8228896 39.84,29.8 C43.5633721,29.7549148 47.2635546,29.206615 50.84,28.17 C54.3882055,27.1555562 57.7341973,25.535 60.73,23.38 C61.17,23.04 61.31,22.72 61.05,22.38 C60.79,22.04 60.42,21.92 59.93,22.14 C53.7887544,24.7792701 47.1743581,26.140257 40.49,26.14 C35.9204093,26.1384796 31.3710467,25.5332429 26.96,24.34 C22.7624384,23.2260699 18.7283262,21.5687221 14.96,19.41 C14.62,19.22 14.38,19.24 14.21,19.41 L14.19,19.35 Z" id="Shape" fill="#FF9900"></path>
                        <path d="M65.47,18.91 C65.1170127,18.6164896 64.6860842,18.4323024 64.23,18.38 L61.92,18.19 C59.9376812,18.1390144 57.9849578,18.6785369 56.31,19.74 C56.09,19.93 55.95,20.15 56.04,20.32 C56.13,20.49 56.19,20.54 56.48,20.49 C60.48,20.05 62.63,20.13 63.09,20.73 C63.55,21.33 63.09,23.52 61.58,27.17 C61.43,27.41 61.51,27.61 61.65,27.68 C61.8691087,27.7370655 62.1019882,27.6721646 62.26,27.51 C63.740242,26.1830952 64.7857862,24.4405216 65.26,22.51 C65.4649095,21.7367254 65.6020944,20.9470762 65.67,20.15 C65.7258853,19.7107152 65.6601662,19.2645175 65.48,18.86 L65.47,18.91 Z" id="Shape" fill="#FF9900"></path>
                        <path d="M7,7.35 L6.39,7.42 C5.43564177,7.53144316 4.49860967,7.75982374 3.6,8.1 C2.67576141,8.50955673 1.88309732,9.16722563 1.31,10 C0.711745256,10.8851339 0.397769287,11.9317205 0.41,13 C0.334802627,14.3049603 0.809955324,15.5817065 1.72,16.52 C2.60278865,17.3478213 3.79355101,17.7653142 5,17.67 C5.71233349,17.6762778 6.42219936,17.5854419 7.11,17.4 C7.28454718,17.3580168 7.45517234,17.3011418 7.62,17.23 C8.48533148,16.797256 9.26736141,16.2149653 9.93,15.51 L10.66,16.51 L11.66,17.51 C11.8852662,17.6341166 12.1637721,17.606266 12.36,17.44 L14.67,15.44 C14.91,15.27 14.91,14.95 14.67,14.66 L13.92,13.49 C13.6788399,12.9913481 13.5556616,12.4438891 13.56,11.89 L13.56,7.2 C13.568457,6.25856293 13.5284039,5.31731532 13.44,4.38 C13.3103829,3.46621597 12.8687611,2.62536806 12.19,2 C10.9284397,0.931943335 9.29864604,0.400644955 7.65,0.52 L7,0.52 C5.74680411,0.56078468 4.52203145,0.903858255 3.43,1.52 C2.08465762,2.28425441 1.168933,3.62830183 0.95,5.16 C0.85,5.5 0.95,5.69 1.39,5.79 L4.28,6.06 C4.6,6.06 4.77,5.89 4.81,5.5 C4.92858377,4.95762779 5.26006765,4.48562358 5.73,4.19 C6.11443829,3.89443012 6.58508131,3.7328661 7.07,3.73 C7.11924611,3.71772083 7.17075389,3.71772083 7.22,3.73 C7.89137322,3.69051608 8.53764008,3.99110532 8.94,4.53 C9.15796761,4.84455112 9.27641941,5.2173259 9.28,5.6 L9.28,7.11 L7,7.35 L7,7.35 Z M7,14.64 C6.86362593,14.6526471 6.72637407,14.6526471 6.59,14.64 C6.06876893,14.6771813 5.56424479,14.4475099 5.25,14.03 C4.88388972,13.5881037 4.70133783,13.0225507 4.74,12.45 C4.70910743,11.1104084 5.67588918,9.95540361 7,9.75 C7.73269048,9.57085141 8.48598728,9.49014103 9.24,9.51 L9.24,11.8 C9.16247281,12.3311686 8.97882591,12.8412989 8.7,13.3 C8.39090208,13.9993364 7.75316683,14.4982705 7,14.63 L7,14.64 Z M46.5,7.35 L45.89,7.42 C44.9356418,7.53144316 43.9986097,7.75982374 43.1,8.1 C42.1574509,8.50168467 41.3466646,9.16001546 40.76,10 C40.1450526,10.8781604 39.8230812,11.9280673 39.84,13 C39.7648026,14.3049603 40.2399553,15.5817065 41.15,16.52 C42.017347,17.3418287 43.1875396,17.7657065 44.38,17.69 C45.0923335,17.6962778 45.8021994,17.6054419 46.49,17.42 C46.6645472,17.3780168 46.8351723,17.3211418 47,17.25 C47.8653315,16.817256 48.6473614,16.2349653 49.31,15.53 L50.04,16.53 L51.04,17.53 C51.2652662,17.6541166 51.5437721,17.626266 51.74,17.46 L54.05,15.46 C54.29,15.29 54.29,14.97 54.05,14.68 L53.3,13.51 C53.0588399,13.0113481 52.9356616,12.4638891 52.94,11.91 L52.94,7.2 C52.948457,6.25856293 52.9084039,5.31731532 52.82,4.38 C52.7038558,3.47280725 52.2803296,2.63281357 51.62,2 C50.3667135,0.931232528 48.7427005,0.399476071 47.1,0.52 L46.5,0.52 C45.2468041,0.56078468 44.0220314,0.903858255 42.93,1.52 C41.5705664,2.26863498 40.6358299,3.60608397 40.4,5.14 C40.3,5.48 40.4,5.67 40.84,5.77 L43.73,6.04 C44.05,6.04 44.22,5.87 44.26,5.48 C44.3785838,4.93762779 44.7100676,4.46562358 45.18,4.17 C45.5644383,3.87443012 46.0350813,3.7128661 46.52,3.71 C46.5692461,3.69772083 46.6207539,3.69772083 46.67,3.71 C47.3413732,3.67051608 47.9876401,3.97110532 48.39,4.51 C48.6079676,4.82455112 48.7264194,5.1973259 48.73,5.58 L48.73,7.09 L46.47,7.36 L46.5,7.35 Z M46.5,14.64 C46.3636259,14.6526471 46.2263741,14.6526471 46.09,14.64 C45.5687689,14.6771813 45.0642448,14.4475099 44.75,14.03 C44.3838897,13.5881037 44.2013378,13.0225507 44.24,12.45 C44.1988741,11.1028863 45.168146,9.93632892 46.5,9.73 C47.2326905,9.55085141 47.9859873,9.47014103 48.74,9.49 L48.74,11.78 C48.6668512,12.3138957 48.4865773,12.8275063 48.21,13.29 C47.9010871,13.9711019 47.2899891,14.4673875 46.56,14.63 L46.5,14.64 Z M76.14,0.67 C74.1641634,0.611651856 72.2891568,1.54165512 71.14,3.15 C69.9056354,4.90064333 69.2834662,7.00969163 69.37,9.15 C69.2879805,11.3115136 69.9090365,13.4413497 71.14,15.22 C72.2603943,16.8673939 74.1490574,17.8230574 76.14,17.75 C78.0764152,17.7508073 79.9012576,16.8439383 81.07,15.3 C82.348865,13.5674768 83.0011772,11.4518696 82.92,9.3 C83.0082936,7.10011853 82.3954933,4.92905452 81.17,3.1 C80.0255088,1.45149797 78.1260148,0.492347557 76.12,0.55 L76.14,0.67 Z M76.14,14.59 C75.14,14.59 74.42,13.89 74.05,12.4 C73.8654192,11.1857567 73.785126,9.95794061 73.81,8.73 C73.7674892,7.67557895 73.8820767,6.62069977 74.15,5.6 C74.51,4.43 75.15,3.83 76.15,3.83 C77.0704435,3.84323978 77.862974,4.48304303 78.07,5.38 C78.4173526,6.70399571 78.5656449,8.07232969 78.51,9.44 C78.5553431,10.5605128 78.4408602,11.6817723 78.17,12.77 C77.81,13.98 77.17,14.59 76.17,14.59 L76.14,14.59 Z" id="Shape" fill="#FFFFFF"></path>
                    </g>
                </g>
            </g>
        </g>
    </g>
</svg>