<?xml version="1.0" encoding="UTF-8" standalone="no"?>
<svg width="160px" height="60px" viewBox="0 0 160 60" version="1.1" xmlns="http://www.w3.org/2000/svg" xmlns:xlink="http://www.w3.org/1999/xlink">
    <!-- Generator: Sketch 40.3 (33839) - http://www.bohemiancoding.com/sketch -->
    <title>Android Light</title>
    <desc>Created with Sketch.</desc>
    <defs></defs>
    <g id="Page-1" stroke="none" stroke-width="1" fill="none" fill-rule="evenodd">
        <g id="Android-Light">
            <g id="Group">
                <rect id="Rectangle" x="0" y="0" width="160" height="60"></rect>
                <g id="Android_logo_(2014)" transform="translate(15.000000, 15.000000)" fill="#77C159">
                    <g id="svg2">
                        <g id="layer1" transform="translate(0.094212, 0.060712)">
                            <g id="flowRoot2998" transform="translate(0.063968, 0.090346)">
                                <path d="M0.0350804764,17.6322895 C0.0350804764,16.1772579 0.27866829,14.8196654 0.765843916,13.5594821 C1.25301954,12.2993387 1.93506342,11.2015673 2.81198554,10.2661677 C3.68889767,9.33080808 4.73794959,8.59680199 5.95915126,8.0641295 C7.18033297,7.5315069 8.51843963,7.26518063 9.97348121,7.26516068 C11.077738,7.26518063 12.081323,7.42757251 12.9842362,7.7523363 C13.8871294,8.07714001 14.7607989,8.60979254 15.6052546,9.35027395 L15.6052546,7.65490717 L20.5549642,7.65490717 L20.5549642,27.6096719 L15.6052546,27.6096719 L15.6052546,25.9142951 C14.7607989,26.6548065 13.8871294,27.187449 12.9842362,27.5122328 C12.081323,27.8370165 11.077738,27.9994084 9.97348121,27.9994084 C8.51843963,27.9994084 7.18033297,27.7330821 5.95915126,27.2004396 C4.73794959,26.667797 3.68889767,25.933781 2.81198554,24.9984014 C1.93506342,24.0630218 1.25301954,22.9652503 0.765843916,21.7050869 C0.27866829,20.4449236 0.0350804764,19.0873311 0.0350804764,17.6322895 L0.0350804764,17.6322895 Z M10.6165634,23.3419963 C11.0062899,23.3420062 11.4155123,23.2997919 11.8442404,23.2153334 C12.2729486,23.1309247 12.7049094,22.9879888 13.1401328,22.7866152 C13.5753362,22.5852517 14.0008017,22.3156828 14.4165393,21.9778985 C14.8322469,21.6401342 15.2284787,21.2244066 15.6052546,20.7307257 L15.6052546,14.5338434 C15.2284787,14.0401824 14.8322469,13.6277075 14.4165393,13.2964085 C14.0008017,12.9651494 13.5753362,12.6955705 13.1401328,12.4877018 C12.7049094,12.2798529 12.2729486,12.1336942 11.8442404,12.0492357 C11.4155123,11.964827 11.0062899,11.9225928 10.6165634,11.9225728 C9.85006099,11.9225928 9.13227813,12.0654889 8.46323478,12.351291 C7.79417147,12.6371131 7.21280935,13.0365975 6.71914843,13.5497442 C6.22546755,14.0629209 5.83897369,14.6670115 5.55966685,15.3620459 C5.28034005,16.0570903 5.14068663,16.8138349 5.14068663,17.6322895 C5.14068663,18.4507542 5.28034005,19.2074987 5.55966685,19.9025331 C5.83897369,20.5975776 6.22546755,21.2016781 6.71914843,21.7148249 C7.21280935,22.2279916 7.79417147,22.627476 8.46323478,22.9132781 C9.13227813,23.1991002 9.85006099,23.3420062 10.6165634,23.3419963 L10.6165634,23.3419963 Z" id="path3007"></path>
                                <path d="M32.9282353,12.1912338 C30.5827722,12.2083949 28.5454306,13.8427899 28.5454306,16.2681918 L28.5454306,27.6096719 L23.5957111,27.6096719 L23.5957111,16.4046026 C23.6233485,11.7321944 27.6696459,7.32811796 32.8573061,7.26516068 L32.9955627,7.26516068 C38.1832228,7.32811796 42.2295403,11.7321944 42.2571577,16.4046026 L42.2571577,27.6096719 L37.3074381,27.6096719 L37.3074381,16.2681918 C37.3074381,13.8427899 35.2700966,12.2083849 32.9246335,12.1912338" id="path3027"></path>
                                <path d="M44.6003559,17.6322895 C44.6003559,16.1772579 44.8439437,14.8196654 45.3311193,13.5594821 C45.818295,12.2993387 46.5003388,11.2015673 47.3772609,10.2661677 C48.2541731,9.33080808 49.303225,8.59680199 50.5244267,8.0641295 C51.7456084,7.5315069 53.083715,7.26518063 54.5387666,7.26516068 C55.6430234,7.26518063 56.649851,7.42757251 57.5592595,7.7523363 C58.468638,8.07714001 59.3390648,8.60329727 60.17053,9.33078813 L60.17053,1.67236892 L65.1202396,1.67236892 L65.1202396,27.6096719 L60.17053,27.6096719 L60.17053,25.933781 C59.3390648,26.6742923 58.468638,27.2036922 57.5592595,27.5219807 C56.649851,27.8402692 55.6430234,27.9994084 54.5387666,27.9994084 C53.083715,27.9994084 51.7456084,27.7330821 50.5244267,27.2004396 C49.303225,26.667797 48.2541731,25.933781 47.3772609,24.9984014 C46.5003388,24.0630218 45.818295,22.9652503 45.3311193,21.7050869 C44.8439437,20.4449236 44.6003559,19.0873311 44.6003559,17.6322895 L44.6003559,17.6322895 Z M55.1818388,23.3419963 C55.5715654,23.3420062 55.9807977,23.2997919 56.4095258,23.2153334 C56.838224,23.1309247 57.2701848,22.9879888 57.7054082,22.7866152 C58.1406116,22.5852517 58.5660771,22.3156828 58.9818147,21.9778985 C59.3975223,21.6401342 59.7937641,21.2244066 60.17053,20.7307257 L60.17053,14.5338434 C59.7937641,14.0401824 59.3975223,13.6277075 58.9818147,13.2964085 C58.5660771,12.9651494 58.1406116,12.6955705 57.7054082,12.4877018 C57.2701848,12.2798529 56.838224,12.1336942 56.4095258,12.0492357 C55.9807977,11.964827 55.5715654,11.9225928 55.1818388,11.9225728 C54.4153364,11.9225928 53.6975635,12.0654889 53.0285102,12.351291 C52.3594469,12.6371131 51.7780848,13.0365975 51.2844238,13.5497442 C50.790743,14.0629209 50.4042491,14.6670115 50.1249423,15.3620459 C49.8456155,16.0570903 49.705962,16.8138349 49.705972,17.6322895 C49.705962,18.4507542 49.8456155,19.2074987 50.1249423,19.9025331 C50.4042491,20.5975776 50.790743,21.2016781 51.2844238,21.7148249 C51.7780848,22.2279916 52.3594469,22.627476 53.0285102,22.9132781 C53.6975635,23.1991002 54.4153364,23.3420062 55.1818388,23.3419963 L55.1818388,23.3419963 Z" id="path3011"></path>
                                <path d="M88.2996544,23.3419963 C89.0401557,23.3420062 89.7384328,23.2023428 90.3945155,22.923026 C91.0505683,22.6437192 91.6221826,22.25073 92.1093781,21.7440586 C92.5965338,21.2373972 92.979785,20.6365492 93.2591118,19.9415048 C93.5384087,19.2464704 93.6780721,18.4767353 93.6780821,17.6322895 C93.6780721,16.8008443 93.535166,16.0376045 93.2493739,15.3425501 C92.9635418,14.6475257 92.5738053,14.0466777 92.0801444,13.5399963 C91.5864635,13.0333548 91.0148393,12.6371131 90.3652818,12.351291 C89.7157043,12.0654889 89.0271552,11.9225928 88.2996544,11.9225728 C87.5591331,11.9225928 86.860846,12.0654889 86.2047932,12.351291 C85.5487204,12.6371131 84.9770962,13.0333548 84.4899306,13.5399963 C84.002745,14.0466777 83.6162511,14.6475257 83.330449,15.3425501 C83.0446369,16.0376045 82.9017309,16.8008443 82.9017309,17.6322895 C82.9017309,18.4767353 83.0413843,19.2464704 83.3207111,19.9415048 C83.6000179,20.6365492 83.9832592,21.2373972 84.4704448,21.7440586 C84.9576104,22.25073 85.5292346,22.6437192 86.1853074,22.923026 C86.8413602,23.2023428 87.5461425,23.3420062 88.2996544,23.3419963 L88.2996544,23.3419963 Z M88.2996544,27.9994084 C86.8576033,27.9994084 85.5000009,27.7395774 84.226857,27.2199254 C82.9536931,26.7002734 81.8396884,25.9760052 80.884823,25.0471209 C79.9299576,24.1182366 79.1764557,23.0204651 78.6243173,21.7538065 C78.0721889,20.4871479 77.7961247,19.1133122 77.7961247,17.6322895 C77.7961247,16.1902585 78.0721889,14.8391513 78.6243173,13.5789779 C79.1764557,12.3188246 79.9267049,11.2210531 80.8750751,10.2856536 C81.8234452,9.35029391 82.9374599,8.61303519 84.2171091,8.07387741 C85.4967582,7.53474955 86.8576033,7.26518063 88.2996544,7.26516068 C89.7416854,7.26518063 91.0992879,7.53474955 92.3724518,8.07387741 C93.6455957,8.61303519 94.7563577,9.35029391 95.7047379,10.2856536 C96.653098,11.2210531 97.4033473,12.3188246 97.9554956,13.5789779 C98.507614,14.8391513 98.7836782,16.1902585 98.7836982,17.6322895 C98.7836782,19.1133122 98.507614,20.4871479 97.9554956,21.7538065 C97.4033473,23.0204651 96.6498454,24.1182366 95.6949999,25.0471209 C94.7401146,25.9760052 93.6293525,26.7002734 92.3627139,27.2199254 C91.0960353,27.7395774 89.7416854,27.9994084 88.2996544,27.9994084 L88.2996544,27.9994084 Z" id="path3015"></path>
                                <path d="M103.47636,6.09235929 C103.07533,6.09237924 102.696239,6.01403684 102.339089,5.85738196 C101.981918,5.70075701 101.668628,5.48771994 101.399199,5.21826078 C101.12976,4.94884152 100.916713,4.63555171 100.760068,4.2783714 C100.603413,3.92124098 100.525091,3.54215033 100.525091,3.14109947 C100.525091,2.74010847 100.603413,2.35788493 100.760068,1.99442885 C100.916713,1.63103263 101.12976,1.31460992 101.399199,1.04514078 C101.668628,0.775731502 101.981918,0.562694433 102.339089,0.406019598 C102.696239,0.24939465 103.07533,0.171072198 103.47636,0.171042266 C103.877371,0.171072198 104.259595,0.249364718 104.623021,0.406019598 C104.986437,0.562694433 105.30287,0.775731502 105.572309,1.04514078 C105.841738,1.31460992 106.054785,1.63103263 106.21144,1.99442885 C106.368085,2.35788493 106.446408,2.74010847 106.446418,3.14109947 C106.446408,3.54215033 106.368095,3.92124098 106.21144,4.2783714 C106.054785,4.63555171 105.841738,4.94884152 105.572309,5.21826078 C105.30287,5.48771994 104.986437,5.70075701 104.623021,5.85738196 C104.259595,6.01405679 103.877371,6.09237924 103.47636,6.09235929 L103.47636,6.09235929 Z" id="path3023"></path>
                                <polygon id="path3017" points="101.001151 7.65490717 105.950871 7.65490717 105.950871 27.6096719 101.001151 27.6096719"></polygon>
                                <path d="M108.226792,17.6322895 C108.226792,16.1772579 108.47038,14.8196654 108.957555,13.5594821 C109.444731,12.2993387 110.126775,11.2015673 111.003697,10.2661677 C111.880609,9.33080808 112.929661,8.59680199 114.150863,8.0641295 C115.372044,7.5315069 116.710151,7.26518063 118.165202,7.26516068 C119.269459,7.26518063 120.276287,7.42757251 121.185695,7.7523363 C122.095074,8.07714001 122.965501,8.60329727 123.796966,9.33078813 L123.796966,1.67236892 L128.746675,1.67236892 L128.746675,27.6096719 L123.796966,27.6096719 L123.796966,25.933781 C122.965501,26.6742923 122.095074,27.2036922 121.185695,27.5219807 C120.276287,27.8402692 119.269459,27.9994084 118.165202,27.9994084 C116.710151,27.9994084 115.372044,27.7330821 114.150863,27.2004396 C112.929661,26.667797 111.880609,25.933781 111.003697,24.9984014 C110.126775,24.0630218 109.444731,22.9652503 108.957555,21.7050869 C108.47038,20.4449236 108.226792,19.0873311 108.226792,17.6322895 L108.226792,17.6322895 Z M118.808275,23.3419963 C119.198001,23.3420062 119.607234,23.2997919 120.035962,23.2153334 C120.46466,23.1309247 120.896621,22.9879888 121.331844,22.7866152 C121.767047,22.5852517 122.192513,22.3156828 122.608251,21.9778985 C123.023958,21.6401342 123.4202,21.2244066 123.796966,20.7307257 L123.796966,14.5338434 C123.4202,14.0401824 123.023958,13.6277075 122.608251,13.2964085 C122.192513,12.9651494 121.767047,12.6955705 121.331844,12.4877018 C120.896621,12.2798529 120.46466,12.1336942 120.035962,12.0492357 C119.607234,11.964827 119.198001,11.9225928 118.808275,11.9225728 C118.041772,11.9225928 117.323999,12.0654889 116.654946,12.351291 C115.985883,12.6371131 115.404521,13.0365975 114.91086,13.5497442 C114.417179,14.0629209 114.030685,14.6670115 113.751378,15.3620459 C113.472051,16.0570903 113.332398,16.8138349 113.332408,17.6322895 C113.332398,18.4507542 113.472051,19.2074987 113.751378,19.9025331 C114.030685,20.5975776 114.417179,21.2016781 114.91086,21.7148249 C115.404521,22.2279916 115.985883,22.627476 116.654946,22.9132781 C117.323999,23.1991002 118.041772,23.3420062 118.808275,23.3419963 L118.808275,23.3419963 Z" id="path3019"></path>
                                <path d="M77.3244739,12.1314294 C74.0074033,12.1314294 72.5446393,13.8427899 72.5446393,16.2681918 L72.5446393,27.6096719 L67.5949197,27.6096719 L67.5949197,16.4046026 C67.6225571,11.7321944 70.3214989,7.13875722 77.3244739,7.13875722" id="path3030"></path>
                            </g>
                        </g>
                    </g>
                </g>
            </g>
        </g>
    </g>
</svg>