<?xml version="1.0" encoding="UTF-8" standalone="no"?>
<svg width="160px" height="60px" viewBox="0 0 160 60" version="1.1" xmlns="http://www.w3.org/2000/svg" xmlns:xlink="http://www.w3.org/1999/xlink">
    <!-- Generator: Sketch 40.3 (33839) - http://www.bohemiancoding.com/sketch -->
    <title>EA</title>
    <desc>Created with Sketch.</desc>
    <defs></defs>
    <g id="Page-1" stroke="none" stroke-width="1" fill="none" fill-rule="evenodd">
        <g id="EA">
            <g id="Group">
                <rect id="Rectangle" fill="#CC2229" x="0" y="0" width="160" height="60"></rect>
                <g id="ea-logo" transform="translate(49.000000, 15.000000)" fill="#FFFFFF">
                    <path d="M42.970874,0 L27.5826556,24.0985307 L10.936281,24.0985307 L14.7107497,18.1948746 L25.1631244,18.1948746 L28.9375931,12.2912185 L5.71009362,12.2912185 L1.93562496,18.0980933 L7.54893733,18.0980933 L0,30.0021868 L31.0667806,30.0021868 L42.8740928,11.2266248 L47.1324677,18.0980933 L43.357999,18.0980933 L39.6803116,24.0985307 L51.0037176,24.0985307 L54.7781863,30.0021868 L61.9399986,30.0021868 L42.970874,0 L42.970874,0 Z M37.8414679,0.290343744 L13.259031,0.290343744 L9.48456229,6.19399986 L34.0669992,6.19399986 L37.8414679,0.290343744 L37.8414679,0.290343744 Z" id="Shape"></path>
                </g>
            </g>
        </g>
    </g>
</svg>