<?xml version="1.0" encoding="UTF-8" standalone="no"?>
<svg width="160px" height="60px" viewBox="0 0 160 60" version="1.1" xmlns="http://www.w3.org/2000/svg" xmlns:xlink="http://www.w3.org/1999/xlink">
    <!-- Generator: Sketch 40.3 (33839) - http://www.bohemiancoding.com/sketch -->
    <title>iOS Light</title>
    <desc>Created with Sketch.</desc>
    <defs></defs>
    <g id="Page-1" stroke="none" stroke-width="1" fill="none" fill-rule="evenodd">
        <g id="iOS-Light">
            <g id="Group">
                <rect id="Rectangle-2" x="0" y="0" width="160" height="60"></rect>
                <g id="ios" transform="translate(55.000000, 16.000000)" fill="#989CA1">
                    <g id="Layer_1">
                        <g id="g10088_1_" transform="translate(0.761030, 0.398207)">
                            <path d="M20.9606361,0.312845314 C18.8332879,0.312845314 17.0187851,0.750828754 15.2668513,1.62679563 C10.6993097,3.8792819 8.07140911,8.69709974 8.07140911,14.7037298 C8.07140911,20.7103598 10.6367407,25.4030395 15.2042823,27.5303877 C16.4556635,28.0935092 17.7070448,28.4063545 19.5841167,28.6566308 C20.5226526,28.7191999 21.3986195,28.7817689 22.3371554,28.6566308 C24.2142273,28.4063545 25.4656086,28.0935092 26.7169898,27.5303877 C31.2845314,25.3404705 33.849863,20.7103598 33.849863,14.7037298 C33.849863,8.69709974 31.2219624,3.8792819 26.6544208,1.62679563 C24.839918,0.750828754 23.0254151,0.312845314 20.9606361,0.312845314 L20.9606361,0.312845314 L20.9606361,0.312845314 Z M22.7751389,4.56754159 C25.5281776,5.31837034 27.4678186,7.75856379 28.2812164,11.3875694 C28.844338,13.890332 28.6566308,16.8310779 27.905802,19.1461332 C26.7169898,22.7125698 24.1516583,24.7773489 20.9606361,24.7147798 C17.8321829,24.7773489 15.2042823,22.7125698 14.0154701,19.1461332 C13.2646413,16.8310779 13.0769341,13.952901 13.6400557,11.3875694 C14.3908845,7.75856379 16.3930945,5.31837034 19.1461332,4.56754159 C20.3349454,4.31726534 21.5863267,4.31726534 22.7751389,4.56754159 L22.7751389,4.56754159 L22.7751389,4.56754159 Z" id="path10079_1_"></path>
                            <path d="M2.75303877,0.312845314 C1.25138126,0.312845314 0,1.56422657 0,3.06588408 C0,4.56754159 1.25138126,5.81892285 2.75303877,5.81892285 C4.25469627,5.81892285 5.50607753,4.56754159 5.50607753,3.06588408 C5.50607753,1.56422657 4.25469627,0.312845314 2.75303877,0.312845314 L2.75303877,0.312845314 Z M0.187707189,8.63453067 L0.187707189,28.7191999 L5.31837034,28.7191999 L5.31837034,8.63453067 L0.187707189,8.63453067 L0.187707189,8.63453067 Z" id="path10077_1_"></path>
                            <path d="M41.2330124,28.7191999 C39.0430952,28.3437855 36.9157471,28.0309402 35.1638133,27.0298352 C35.1638133,27.0298352 36.2274874,22.9628461 36.2900565,22.900277 C39.1682333,23.901382 43.2352224,25.2153323 45.9256921,23.9639511 C47.4273496,23.2131223 48.1156093,21.8366029 47.9279021,20.2723764 C47.6776259,18.4578735 46.4262446,17.4567685 43.0475152,16.2053873 C39.2933715,14.7662988 37.0408852,13.0769341 36.1649183,10.8244479 C35.7269349,9.69820474 35.6017968,8.32168536 35.789504,7.0703041 C36.3526255,3.62900565 39.0430952,1.25138126 43.1100843,0.500552503 C44.2988965,0.312845314 46.8642281,0.312845314 48.1156093,0.500552503 C49.9301122,0.813397817 51.9948912,1.50165751 51.9948912,1.75193376 C51.9948912,1.87707189 50.9312172,5.56864659 50.8686481,5.69378472 C49.0541453,5.00552503 47.1145043,4.50497253 45.3625706,4.44240346 C42.9849462,4.3798344 40.3570455,5.81892285 40.795029,8.32168536 C41.1078743,9.88591193 42.1089793,10.6367407 45.800554,12.1383982 C48.5535928,13.2646413 49.804974,14.0154701 50.9312172,15.1417132 C52.4954437,16.7059398 52.9959962,18.5204426 52.9959962,20.3349454 C52.9959962,21.8366029 52.8708581,22.5248626 52.3077365,23.7136748 C50.9937862,26.5292827 48.3658856,28.1560783 44.3614656,28.5940617 C43.6106368,28.7191999 41.8587031,28.7817689 41.2330124,28.7191999 L41.2330124,28.7191999 L41.2330124,28.7191999 Z" id="path10039_1_"></path>
                        </g>
                    </g>
                </g>
            </g>
        </g>
    </g>
</svg>