<?xml version="1.0" encoding="UTF-8" standalone="no"?>
<svg width="320px" height="180px" viewBox="0 0 320 180" version="1.1" xmlns="http://www.w3.org/2000/svg" xmlns:xlink="http://www.w3.org/1999/xlink">
    <!-- Generator: Sketch 40.3 (33839) - http://www.bohemiancoding.com/sketch -->
    <title>MYHABIT</title>
    <desc>Created with Sketch.</desc>
    <defs></defs>
    <g id="Page-1" stroke="none" stroke-width="1" fill="none" fill-rule="evenodd">
        <g id="MYHABIT">
            <g id="Group-2">
                <rect id="Rectangle-3" fill="#FFFFFF" x="0" y="0" width="320" height="180"></rect>
                <g id="Group" transform="translate(15.000000, 70.000000)">
                    <polygon id="Path-11" fill="#231F20" points="247.112187 7.06860858 264.639823 7.06860858 264.639823 39.5822239 272.029154 39.5822239 272.029154 7.06860858 289.698973 7.06860858 289.698973 0.673132394 247.112187 0.673132394"></polygon>
                    <polygon id="Path-10" fill="#231F20" points="235.622942 0.591077486 235.622942 39.7479291 243.138371 39.7479291 243.138371 0.591077486"></polygon>
                    <path d="M191.18268,0.651541068 L191.115051,39.615904 L217.815352,39.7211538 C217.815352,39.7211538 222.05037,39.7064162 225.482014,37.9708724 C228.287751,36.5518793 230.253188,34.4414219 231.010315,32.1767602 C231.524218,30.6396094 232.06584,26.5195287 230.747638,23.8237349 C229.116174,20.487304 225.482014,18.6635847 225.482014,18.6635847 C225.482014,18.6635847 227.337297,17.7868763 228.599199,16.1499065 C229.545828,14.9219164 230.021191,13.2443999 230.021191,11.1926421 C230.021191,9.0406345 229.53637,5.58618802 226.53384,3.11886455 C223.53131,0.651541068 217.27701,0.52972005 217.27701,0.52972005 L191.18268,0.651541068 Z M198.652055,22.4344378 L198.652055,33.4142289 L216.3114,33.4142289 C216.3114,33.4142289 219.598,33.3163347 221.576128,32.0677035 C223.308372,30.9742784 223.764875,28.7786983 223.764875,27.9243334 C223.764875,27.0481155 223.357388,24.8414594 221.576128,23.7287862 C219.637334,22.5177089 216.3114,22.4344378 216.3114,22.4344378 L198.652055,22.4344378 Z M198.586957,6.87516188 L198.586957,15.9004422 L216.246301,15.9004422 C216.246301,15.9004422 218.708528,16.1442739 220.686655,14.8956427 C222.418899,13.8022176 222.306158,12.1773375 222.306158,11.3229726 C222.306158,10.4467547 222.467916,9.06765307 220.686655,7.9549798 C218.747861,6.74390251 216.246301,6.87516188 216.246301,6.87516188 L198.586957,6.87516188 Z" id="Combined-Shape" fill="#231F20"></path>
                    <path d="M140.97988,39.6875634 L149.387993,39.6875634 L153.317169,30.6983368 L175.870852,30.6983368 L179.833619,39.6875634 L188.084081,39.6875634 L169.013046,0.604402604 L160.222898,0.604402604 L140.97988,39.6875634 Z M164.71684,6.8834475 L156.38688,24.0335626 L173.12876,24.0335626 L164.71684,6.8834475 Z" id="Combined-Shape" fill="#231F20"></path>
                    <polygon id="Path-5" fill="#231F20" points="96.5880959 0.748344201 96.5880959 39.6405351 104.085909 39.6405351 104.085909 22.8499334 130.431206 22.8499334 130.431206 39.6405351 138.04999 39.6405351 138.04999 0.748344201 130.431206 0.748344201 130.431206 15.9918755 104.085909 15.9918755 104.085909 0.748344201"></polygon>
                    <polygon id="Path-4" fill="#9FA1A4" points="48.1546165 0.715529033 67.4372647 24.1729631 67.4372647 39.6259991 75.1968296 39.6259991 75.1968296 24.1729631 94.1686002 0.715529033 84.5664929 0.715529033 71.1948506 17.1408375 57.6451047 0.715529033"></polygon>
                    <polygon id="Path-3" fill="#9FA1A4" points="0.93294919 0.687479251 0.93294919 39.6318271 7.57909661 39.6318271 7.57909661 9.93018381 20.1519602 39.6318271 26.5208077 39.6318271 39.0920779 9.93018381 39.0920779 39.6318271 45.7577584 39.6318271 45.7577584 0.687479251 35.6567968 0.687479251 23.3809443 29.3835288 11.0608062 0.687479251"></polygon>
                </g>
            </g>
        </g>
    </g>
</svg>