<?xml version="1.0" encoding="UTF-8" standalone="no"?>
<svg width="320px" height="180px" viewBox="0 0 320 180" version="1.1" xmlns="http://www.w3.org/2000/svg" xmlns:xlink="http://www.w3.org/1999/xlink">
    <!-- Generator: Sketch 40.3 (33839) - http://www.bohemiancoding.com/sketch -->
    <title>Tesco Bank</title>
    <desc>Created with Sketch.</desc>
    <defs>
        <rect id="path-1" x="0" y="0.810055866" width="287.569832" height="49.575419"></rect>
        <rect id="path-3" x="0.48603352" y="0.810055866" width="287.569832" height="49.575419"></rect>
        <rect id="path-5" x="0.48603352" y="0.810055866" width="287.569832" height="49.575419"></rect>
        <rect id="path-7" x="0.48603352" y="0.810055866" width="287.569832" height="49.575419"></rect>
        <rect id="path-9" x="0.48603352" y="0.810055866" width="287.569832" height="49.575419"></rect>
        <rect id="path-11" x="0.48603352" y="0.810055866" width="287.569832" height="49.575419"></rect>
        <rect id="path-13" x="0.48603352" y="0.810055866" width="287.569832" height="49.575419"></rect>
        <rect id="path-15" x="0.48603352" y="0.810055866" width="287.569832" height="49.575419"></rect>
        <rect id="path-17" x="0.48603352" y="0.810055866" width="287.569832" height="49.575419"></rect>
        <rect id="path-19" x="0.48603352" y="0.810055866" width="287.569832" height="49.575419"></rect>
        <rect id="path-21" x="0.48603352" y="0.810055866" width="287.569832" height="49.575419"></rect>
        <rect id="path-23" x="0.48603352" y="0.810055866" width="287.569832" height="49.575419"></rect>
        <rect id="path-25" x="0.48603352" y="0.810055866" width="287.569832" height="49.575419"></rect>
        <rect id="path-27" x="0.48603352" y="0.810055866" width="287.569832" height="49.575419"></rect>
    </defs>
    <g id="Page-1" stroke="none" stroke-width="1" fill="none" fill-rule="evenodd">
        <g id="Tesco-Bank">
            <g id="site-logo-rb" transform="translate(15.000000, 61.000000)">
                <g id="Group">
                    <g id="Clipped">
                        <mask id="mask-2" fill="white">
                            <use xlink:href="#path-1"></use>
                        </mask>
                        <g id="SVGID_1_"></g>
                        <path d="M14.0949721,41.9608939 L36.7765363,41.9608939 C36.9385475,41.9608939 36.9385475,42.122905 36.7765363,42.122905 C34.1843575,43.2569832 30.6201117,46.6592179 30.6201117,46.6592179 C28.027933,48.9273743 26.0837989,50.3854749 21.8715084,50.3854749 L0.162011173,50.3854749 C0,50.3854749 0,50.3854749 0,50.2234637 C2.4301676,49.0893855 5.99441341,45.5251397 5.99441341,45.5251397 C7.45251397,44.0670391 10.3687151,41.9608939 14.0949721,41.9608939" id="Shape" fill="#00539F" mask="url(#mask-2)"></path>
                    </g>
                    <g transform="translate(1.620112, 0.000000)" id="Clipped">
                        <g>
                            <mask id="mask-4" fill="white">
                                <use xlink:href="#path-3"></use>
                            </mask>
                            <g id="SVGID_3_"></g>
                            <path d="M163.307263,41.9608939 L185.988827,41.9608939 C186.150838,41.9608939 186.150838,42.122905 185.988827,42.122905 C183.396648,43.2569832 179.832402,46.6592179 179.832402,46.6592179 C177.240223,48.9273743 175.296089,50.3854749 171.083799,50.3854749 L149.212291,50.3854749 C149.050279,50.3854749 149.050279,50.2234637 149.212291,50.2234637 C151.642458,49.0893855 155.206704,45.5251397 155.206704,45.5251397 C156.502793,44.0670391 159.581006,41.9608939 163.307263,41.9608939" id="Shape" fill="#00539F" mask="url(#mask-4)"></path>
                        </g>
                        <g>
                            <mask id="mask-6" fill="white">
                                <use xlink:href="#path-5"></use>
                            </mask>
                            <g id="SVGID_3_"></g>
                            <path d="M51.8435754,41.9608939 L74.5251397,41.9608939 C74.6871508,41.9608939 74.6871508,42.122905 74.5251397,42.122905 C71.9329609,43.2569832 68.3687151,46.6592179 68.3687151,46.6592179 C65.7765363,48.9273743 63.8324022,50.3854749 59.6201117,50.3854749 L37.7486034,50.3854749 C37.5865922,50.3854749 37.5865922,50.2234637 37.7486034,50.2234637 C40.1787709,49.0893855 43.7430168,45.5251397 43.7430168,45.5251397 C45.0391061,44.0670391 48.1173184,41.9608939 51.8435754,41.9608939" id="Shape" fill="#00539F" mask="url(#mask-6)"></path>
                        </g>
                        <g>
                            <mask id="mask-8" fill="white">
                                <use xlink:href="#path-7"></use>
                            </mask>
                            <g id="SVGID_3_"></g>
                            <path d="M88.9441341,41.9608939 L111.625698,41.9608939 C111.787709,41.9608939 111.787709,42.122905 111.625698,42.122905 C109.03352,43.2569832 105.469274,46.6592179 105.469274,46.6592179 C102.877095,48.9273743 100.932961,50.3854749 96.7206704,50.3854749 L74.849162,50.3854749 C74.6871508,50.3854749 74.6871508,50.2234637 74.849162,50.2234637 C77.2793296,49.0893855 80.8435754,45.5251397 80.8435754,45.5251397 C82.301676,44.0670391 85.2178771,41.9608939 88.9441341,41.9608939" id="Shape" fill="#00539F" mask="url(#mask-8)"></path>
                        </g>
                        <g>
                            <mask id="mask-10" fill="white">
                                <use xlink:href="#path-9"></use>
                            </mask>
                            <g id="SVGID_3_"></g>
                            <path d="M126.044693,41.9608939 L148.726257,41.9608939 C148.888268,41.9608939 148.888268,42.122905 148.726257,42.122905 C146.134078,43.2569832 142.569832,46.6592179 142.569832,46.6592179 C139.977654,48.9273743 138.03352,50.3854749 133.821229,50.3854749 L112.111732,50.3854749 C111.949721,50.3854749 111.949721,50.2234637 112.111732,50.2234637 C114.541899,49.0893855 118.106145,45.5251397 118.106145,45.5251397 C119.402235,44.0670391 122.318436,41.9608939 126.044693,41.9608939" id="Shape" fill="#00539F" mask="url(#mask-10)"></path>
                        </g>
                        <g>
                            <mask id="mask-12" fill="white">
                                <use xlink:href="#path-11"></use>
                            </mask>
                            <g id="SVGID_3_"></g>
                            <path d="M132.201117,0.972067039 C117.944134,0.972067039 108.547486,7.77653631 108.547486,18.3072626 C108.547486,27.8659218 117.134078,34.1843575 130.094972,34.1843575 C134.307263,34.1843575 138.03352,33.698324 142.407821,32.5642458 L142.407821,24.4636872 C139.329609,27.7039106 135.603352,29 131.715084,29 C124.100559,29 118.75419,24.301676 118.75419,17.3351955 C118.75419,10.5307263 124.26257,5.67039106 131.715084,5.67039106 C135.765363,5.67039106 139.167598,7.12849162 141.759777,9.72067039 L141.759777,1.62011173 C139.167598,1.13407821 135.765363,0.972067039 132.201117,0.972067039" id="Shape" fill="#EE1C2E" mask="url(#mask-12)"></path>
                        </g>
                        <g>
                            <mask id="mask-14" fill="white">
                                <use xlink:href="#path-13"></use>
                            </mask>
                            <g id="SVGID_3_"></g>
                            <path d="M25.1117318,6.48044693 C30.4581006,6.48044693 36.7765363,7.45251397 39.3687151,9.55865922 L39.3687151,1.94413408 L1.78212291,1.94413408 L1.78212291,9.55865922 C4.37430168,7.45251397 10.0446927,6.6424581 16.2011173,6.6424581 L16.2011173,27.5418994 C16.2011173,30.6201117 15.877095,31.4301676 14.5810056,33.0502793 L26.5698324,33.0502793 C25.273743,31.4301676 24.9497207,30.6201117 24.9497207,27.5418994 L24.9497207,6.48044693 L25.1117318,6.48044693 Z" id="Shape" fill="#EE1C2E" mask="url(#mask-14)"></path>
                        </g>
                        <g>
                            <mask id="mask-16" fill="white">
                                <use xlink:href="#path-15"></use>
                            </mask>
                            <g id="SVGID_3_"></g>
                            <path d="M64.1564246,13.9329609 C62.0502793,14.5810056 58.1620112,14.9050279 56.0558659,14.9050279 L52.9776536,14.9050279 L52.9776536,6.6424581 L57.1899441,6.6424581 C60.9162011,6.6424581 67.5586592,7.45251397 69.9888268,9.55865922 L69.9888268,1.94413408 L42.6089385,1.94413408 C43.9050279,3.56424581 44.0670391,4.37430168 44.0670391,7.45251397 L44.0670391,27.5418994 C44.0670391,30.6201117 43.7430168,31.4301676 42.6089385,33.0502793 L71.7709497,33.0502793 L71.7709497,25.4357542 C67.7206704,28.3519553 60.1061453,28.3519553 57.027933,28.1899441 L52.8156425,28.1899441 L52.8156425,19.4413408 L55.8938547,19.4413408 C58,19.4413408 61.8882682,19.603352 63.9944134,20.2513966 L63.9944134,13.9329609 L64.1564246,13.9329609 Z" id="Shape" fill="#EE1C2E" mask="url(#mask-16)"></path>
                        </g>
                        <g>
                            <mask id="mask-18" fill="white">
                                <use xlink:href="#path-17"></use>
                            </mask>
                            <g id="SVGID_3_"></g>
                            <path d="M104.659218,2.91620112 C100.284916,1.62011173 94.6145251,0.810055866 90.2402235,0.810055866 C82.301676,0.810055866 74.6871508,3.24022346 74.6871508,11.0167598 C74.6871508,24.6256983 98.5027933,17.4972067 98.5027933,25.7597765 C98.5027933,28.5139665 94.2905028,29.6480447 90.8882682,29.6480447 C84.7318436,29.6480447 80.5195531,28.6759777 75.1731844,25.5977654 L75.1731844,32.4022346 C79.2234637,33.698324 84.5698324,34.3463687 90.4022346,34.3463687 C98.6648045,34.3463687 106.27933,32.2402235 106.27933,24.1396648 C106.27933,9.88268156 82.6256983,16.3631285 82.6256983,9.39664804 C82.6256983,6.6424581 86.3519553,5.67039106 89.7541899,5.67039106 C95.424581,5.67039106 101.418994,7.29050279 104.659218,10.3687151 L104.659218,2.91620112 L104.659218,2.91620112 Z" id="Shape" fill="#EE1C2E" mask="url(#mask-18)"></path>
                        </g>
                        <g>
                            <mask id="mask-20" fill="white">
                                <use xlink:href="#path-19"></use>
                            </mask>
                            <g id="SVGID_3_"></g>
                            <path d="M184.692737,17.3351955 C184.692737,7.45251397 176.916201,0.972067039 165.413408,0.972067039 C153.100559,0.972067039 144.513966,8.10055866 144.513966,17.9832402 C144.513966,27.7039106 152.290503,34.1843575 163.955307,34.1843575 C176.268156,34.1843575 184.692737,27.3798883 184.692737,17.3351955 M153.910615,17.4972067 C153.910615,10.8547486 158.122905,5.67039106 164.603352,5.67039106 C171.083799,5.67039106 175.296089,11.0167598 175.296089,17.4972067 C175.296089,24.1396648 171.083799,29.3240223 164.603352,29.3240223 C158.122905,29.3240223 153.910615,24.1396648 153.910615,17.4972067" id="Shape" fill="#EE1C2E" mask="url(#mask-20)"></path>
                        </g>
                        <g>
                            <mask id="mask-22" fill="white">
                                <use xlink:href="#path-21"></use>
                            </mask>
                            <g id="SVGID_3_"></g>
                            <path d="M211.748603,18.3072626 L204.620112,18.3072626 L204.620112,29.972067 L211.748603,29.972067 C215.47486,29.972067 217.581006,27.5418994 217.581006,24.1396648 C217.581006,20.7374302 215.312849,18.3072626 211.748603,18.3072626 M210.938547,5.02234637 L204.620112,5.02234637 L204.620112,15.2290503 L210.938547,15.2290503 C213.854749,15.2290503 215.960894,13.122905 215.960894,10.0446927 C215.798883,6.6424581 214.01676,5.02234637 210.938547,5.02234637 M212.396648,33.0502793 L201.217877,33.0502793 C200.893855,33.0502793 200.569832,32.8882682 200.569832,32.5642458 L200.569832,4.2122905 C200.569832,3.24022346 200.407821,2.26815642 200.083799,1.78212291 L211.26257,1.78212291 C217.581006,1.78212291 220.011173,5.34636872 220.011173,9.23463687 C220.011173,11.5027933 219.363128,14.5810056 216.122905,16.3631285 C220.497207,17.8212291 221.955307,20.8994413 221.955307,24.4636872 C221.955307,29.1620112 218.391061,33.0502793 212.396648,33.0502793" id="Shape" fill="#00539F" mask="url(#mask-22)"></path>
                        </g>
                        <g>
                            <mask id="mask-24" fill="white">
                                <use xlink:href="#path-23"></use>
                            </mask>
                            <g id="SVGID_3_"></g>
                            <path d="M237.994413,23.1675978 C236.860335,23.0055866 234.75419,22.6815642 233.296089,22.6815642 C229.893855,22.6815642 228.273743,24.1396648 228.273743,26.7318436 C228.273743,29.3240223 229.893855,30.4581006 232.486034,30.4581006 C235.564246,30.4581006 237.346369,28.8379888 237.994413,27.8659218 L237.994413,23.1675978 L237.994413,23.1675978 Z M238.804469,33.0502793 C238.318436,33.0502793 238.156425,32.8882682 238.156425,32.5642458 L238.156425,31.1061453 C237.346369,31.9162011 235.240223,33.698324 231.189944,33.698324 C226.815642,33.698324 224.223464,30.9441341 224.223464,26.8938547 C224.223464,22.3575419 227.463687,19.7653631 232.648045,19.7653631 C234.592179,19.7653631 236.536313,19.9273743 237.832402,20.2513966 L237.832402,19.1173184 C237.832402,15.7150838 235.888268,14.5810056 232.324022,14.5810056 C229.569832,14.5810056 227.463687,15.5530726 226.653631,16.0391061 L226.005587,14.2569832 C226.005587,14.0949721 225.843575,13.7709497 225.843575,13.6089385 C225.681564,13.122905 226.005587,12.7988827 226.653631,12.4748603 C227.301676,12.150838 229.731844,11.3407821 232.648045,11.3407821 C239.452514,11.3407821 241.396648,14.4189944 241.396648,18.9553073 L241.396648,33.2122905 L238.804469,33.2122905 L238.804469,33.0502793 Z" id="Shape" fill="#00539F" mask="url(#mask-24)"></path>
                        </g>
                        <g>
                            <mask id="mask-26" fill="white">
                                <use xlink:href="#path-25"></use>
                            </mask>
                            <g id="SVGID_3_"></g>
                            <path d="M261.162011,33.0502793 C260.837989,33.0502793 260.513966,32.8882682 260.513966,32.5642458 L260.513966,19.9273743 C260.513966,16.5251397 259.217877,14.5810056 255.977654,14.5810056 C253.223464,14.5810056 251.117318,16.3631285 249.98324,17.9832402 L249.98324,33.0502793 L246.743017,33.0502793 C246.418994,33.0502793 246.094972,32.8882682 246.094972,32.5642458 L246.094972,17.4972067 C246.094972,16.2011173 245.932961,14.7430168 245.77095,13.6089385 C245.608939,12.9608939 245.608939,12.4748603 245.284916,11.9888268 L248.363128,11.9888268 C248.849162,11.9888268 249.011173,12.150838 249.173184,12.4748603 C249.335196,12.6368715 249.335196,12.9608939 249.335196,13.2849162 C249.497207,13.7709497 249.497207,14.2569832 249.497207,14.7430168 C250.469274,13.7709497 252.899441,11.5027933 256.463687,11.5027933 C261.972067,11.5027933 264.240223,14.4189944 264.240223,19.2793296 L264.240223,33.2122905 L261.162011,33.2122905 L261.162011,33.0502793 Z" id="Shape" fill="#00539F" mask="url(#mask-26)"></path>
                        </g>
                        <g>
                            <mask id="mask-28" fill="white">
                                <use xlink:href="#path-27"></use>
                            </mask>
                            <g id="SVGID_3_"></g>
                            <path d="M283.519553,33.0502793 C283.03352,33.0502793 282.709497,32.8882682 282.223464,32.4022346 L272.664804,22.5195531 L272.664804,33.0502793 L269.424581,33.0502793 C269.100559,33.0502793 268.776536,32.8882682 268.776536,32.5642458 L268.776536,4.2122905 C268.776536,3.24022346 268.614525,2.26815642 268.128492,1.78212291 L270.558659,1.62011173 C271.206704,1.62011173 271.692737,1.45810056 271.854749,1.45810056 C272.340782,1.45810056 272.502793,1.62011173 272.502793,2.10614525 L272.502793,20.575419 L280.603352,12.4748603 C281.089385,11.9888268 281.575419,11.8268156 281.899441,11.8268156 L286.111732,11.8268156 L276.22905,21.3854749 L287.893855,33.2122905 L283.519553,33.2122905 L283.519553,33.0502793 Z" id="Shape" fill="#00539F" mask="url(#mask-28)"></path>
                        </g>
                    </g>
                </g>
            </g>
        </g>
    </g>
</svg>